<?xml version="1.0" encoding="UTF-8" standalone="no"?>
<!-- Created with Inkscape (http://www.inkscape.org/) -->

<svg
   width="1930mm"
   height="182mm"
   viewBox="0 0 1930 182"
   version="1.1"
   id="svg5"
   xml:space="preserve"
   inkscape:version="1.2.2 (732a01da63, 2022-12-09)"
   sodipodi:docname="Qlik-CustomerSuccess.svg"
   inkscape:export-filename="Qlik-CustomerSuccess.png"
   inkscape:export-xdpi="96.181328"
   inkscape:export-ydpi="96.181328"
   xmlns:inkscape="http://www.inkscape.org/namespaces/inkscape"
   xmlns:sodipodi="http://sodipodi.sourceforge.net/DTD/sodipodi-0.dtd"
   xmlns="http://www.w3.org/2000/svg"
   xmlns:svg="http://www.w3.org/2000/svg"><sodipodi:namedview
     id="namedview7"
     pagecolor="#ffffff"
     bordercolor="#666666"
     borderopacity="1.0"
     inkscape:showpageshadow="2"
     inkscape:pageopacity="0.0"
     inkscape:pagecheckerboard="0"
     inkscape:deskcolor="#d1d1d1"
     inkscape:document-units="mm"
     showgrid="false"
     inkscape:zoom="0.16189154"
     inkscape:cx="2097.083"
     inkscape:cy="1470.12"
     inkscape:window-width="2560"
     inkscape:window-height="1369"
     inkscape:window-x="1912"
     inkscape:window-y="-8"
     inkscape:window-maximized="1"
     inkscape:current-layer="layer1" /><defs
     id="defs2" /><g
     inkscape:label="Layer 1"
     inkscape:groupmode="layer"
     id="layer1"
     transform="translate(-0.1733427,-102.88553)"><g
       id="g40"
       transform="matrix(1.2656899,0,0,1.2656899,-28.937525,85.027803)">
	<path
   class="st0"
   d="m 274.6,89.7 c -1.9,-3.1 0.6,-5.7 0.6,-5.7 l 22,-22.7 c 2.5,-2.6 -1.1,-2.6 -1.1,-2.6 h -20.5 c -3.6,0 -6.1,2.6 -6.1,2.6 l -20.3,21.6 c -2.5,2.6 -2.5,-1 -2.5,-1 V 34.7 c 0,-3.6 -3.6,-3.6 -3.6,-3.6 h -15.5 c -3.5,0 -3.5,3.5 -3.5,3.5 v 98.7 c 0,3.6 3.6,3.6 3.6,3.6 h 15.4 c 3.5,0 3.5,-3.5 3.5,-3.5 v -17.3 c 0,-3.6 2.6,-6.1 2.6,-6.1 l 7.3,-6.8 18.2,30.6 c 1.8,3.1 5.4,3.1 5.4,3.1 h 19.5 c 3.6,0 1.7,-3.1 1.7,-3.1 z m -66.7,43.6 V 62.2 c 0,-3.6 -3.6,-3.6 -3.6,-3.6 h -15.6 c -3.6,0 -3.6,3.6 -3.6,3.6 v 71.1 c 0,3.6 3.6,3.6 3.6,3.6 h 15.6 c 3.6,0 3.6,-3.6 3.6,-3.6 z M 207.3,44.7 V 34.5 c 0,0 0,-3.5 -3.5,-3.5 h -15.2 c 0,0 -3.5,0 -3.5,3.5 v 10.2 c 0,0 0,3.5 3.5,3.5 h 15.3 c 0,0 3.4,0 3.4,-3.5 z m -38.9,88.6 V 34.8 c 0,-3.6 -3.6,-3.6 -3.6,-3.6 h -15.9 c -3.6,0 -3.6,3.6 -3.6,3.6 v 98.5 c 0,3.6 3.6,3.6 3.6,3.6 h 15.9 c 3.6,0 3.6,-3.6 3.6,-3.6 z m -35.7,-4.2 c 0,0 2,-2.3 -0.3,-4.3 l -12.7,-11.1 c 5.7,-8.5 9.1,-18.6 9.1,-29.6 0,-29.2 -23.7,-52.9 -52.9,-52.9 -29.2,0 -52.9,23.7 -52.9,52.9 0,29.2 23.7,52.9 52.9,52.9 10.7,0 20.6,-3.2 29,-8.7 l 14,12.1 c 0,0 2.3,2 4.3,-0.3 z M 106.4,84 c 0,16.9 -13.7,30.6 -30.6,30.6 -16.9,0 -30.6,-13.7 -30.6,-30.6 0,-16.9 13.7,-30.6 30.6,-30.6 16.9,0.1 30.6,13.7 30.6,30.6 z"
   id="path30" />
	<path
   class="st1"
   d="m 451.1,130.2 -17,-14.3 c 5.9,-9.4 9.4,-20.5 9.4,-32.4 0,-33.5 -27.2,-60.7 -60.7,-60.7 -33.5,0 -60.7,27.2 -60.7,60.7 0,33.5 27.2,60.7 60.7,60.7 13,0 25.1,-4.1 35,-11.1 l 18.1,15.2 c 0,0 2.7,2.3 5,-0.4 l 10.8,-12.8 c -0.1,0 2.1,-2.7 -0.6,-4.9 z m -31,-46.7 c 0,20.6 -16.7,37.3 -37.3,37.3 -20.6,0 -37.3,-16.7 -37.3,-37.3 0,-20.6 16.7,-37.3 37.3,-37.3 20.6,0 37.3,16.7 37.3,37.3 z"
   id="path32" />
	<path
   class="st0"
   d="m 358.8,83.5 c 0,-13.2 10.7,-23.9 23.9,-23.9 13.2,0 23.9,10.7 23.9,23.9 0,13.2 -10.7,23.9 -23.9,23.9 -13.2,0 -23.9,-10.7 -23.9,-23.9 z"
   id="path34" />
	<g
   id="g38">
		<path
   class="st0"
   d="m 440.9,40.7 c 0,-3.7 3,-6.6 6.6,-6.6 3.7,0 6.6,3 6.6,6.6 0,3.6 -3,6.6 -6.6,6.6 -3.6,0 -6.6,-3 -6.6,-6.6 z m 6.6,-5.8 c -3.1,0 -5.6,2.5 -5.6,5.7 0,3.2 2.4,5.7 5.6,5.7 3.2,0 5.6,-2.5 5.6,-5.7 -0.1,-3.1 -2.4,-5.7 -5.6,-5.7 z m -1.5,9.8 h -0.9 v -8.1 h 2.9 c 1.4,0 2.5,0.7 2.5,2.2 0,1.3 -0.7,2.1 -1.9,2.2 l 2.3,3.6 h -1.1 L 447.7,41 h -1.6 v 3.7 z m 0,-4.4 h 1.8 c 1.1,0 1.8,-0.2 1.8,-1.5 0,-1 -0.8,-1.4 -1.8,-1.4 H 446 Z"
   id="path36" />
	</g>
</g><text
       xml:space="preserve"
       style="font-style:normal;font-variant:normal;font-weight:normal;font-stretch:normal;font-size:181.488px;line-height:1.75;font-family:'Source Sans Pro';-inkscape-font-specification:'Source Sans Pro';letter-spacing:0px;word-spacing:0px;fill:#54565b;fill-opacity:1;stroke:none;stroke-width:1.89051"
       x="570.46497"
       y="253.41359"
       id="text266"><tspan
         sodipodi:role="line"
         id="tspan264"
         style="font-style:normal;font-variant:normal;font-weight:normal;font-stretch:normal;font-size:181.488px;font-family:'Source Sans Pro';-inkscape-font-specification:'Source Sans Pro';fill:#54565b;stroke-width:1.89051"
         x="570.46497"
         y="253.41359">Customer Success</tspan></text><rect
       style="fill:#54565b;stroke-width:0.475243"
       id="rect1004"
       width="3.0333335"
       height="182"
       x="561.34064"
       y="102.88553" /></g><style
     type="text/css"
     id="style28">
	.st0{fill:#54565B;}
	.st1{fill:#009848;}
</style></svg>
